HIERARCHY
ROOT Hips
{
  OFFSET 13.6774 106.653 -34.4427
  CHANNELS 6 Xposition Yposition Zposition Zrotation Xrotation Yrotation
  JOINT ToSpine
  {
    OFFSET -2.69724 7.43032 -0.144315
    CHANNELS 3 Zrotation Xrotation Yrotation
    JOINT Spine
    {
      OFFSET -0.0310711 10.7595 1.96963
      CHANNELS 3 Zrotation Xrotation Yrotation
      JOINT Spine1
      {
        OFFSET 19.9056 3.91189 0.764692
        CHANNELS 3 Zrotation Xrotation Yrotation
        JOINT Neck
        {
          OFFSET 25.9749 7.03908 -0.130764
          CHANNELS 3 Zrotation Xrotation Yrotation
          JOINT Head
          {
            OFFSET 9.52751 0.295786 -0.907742
            CHANNELS 3 Zrotation Xrotation Yrotation
            End Site
            {
              OFFSET 16.4037 0.713936 2.7358
            }
          }
        }
        JOINT LeftShoulder
        {
          OFFSET 17.7449 4.33886 11.7777
          CHANNELS 3 Zrotation Xrotation Yrotation
          JOINT LeftArm
          {
            OFFSET 0.911315 1.27913 9.80584
            CHANNELS 3 Zrotation Xrotation Yrotation
            JOINT LeftForeArm
            {
              OFFSET 28.6126 1.18197 -3.53199
              CHANNELS 3 Zrotation Xrotation Yrotation
              JOINT LeftHand
              {
                OFFSET 27.5088 0.0218783 0.327423
                CHANNELS 3 Zrotation Xrotation Yrotation
                End Site
                {
                  OFFSET 18.6038 -0.000155887 0.382096
                }
              }
            }
          }
        }
        JOINT RightShoulder
        {
          OFFSET 17.1009 2.89543 -12.2328
          CHANNELS 3 Zrotation Xrotation Yrotation
          JOINT RightArm
          {
            OFFSET 1.4228 0.178766 -10.211
            CHANNELS 3 Zrotation Xrotation Yrotation
            JOINT RightForeArm
            {
              OFFSET 28.733 1.87905 2.64907
              CHANNELS 3 Zrotation Xrotation Yrotation
              JOINT RightHand
              {
                OFFSET 27.4588 0.290562 -0.101845
                CHANNELS 3 Zrotation Xrotation Yrotation
                End Site
                {
                  OFFSET 17.8396 -0.255518 -0.000602873
                }
              }
            }
          }
        }
      }
    }
  }
  JOINT LeftUpLeg
  {
    OFFSET -5.61296 -2.22332 -10.2353
    CHANNELS 3 Zrotation Xrotation Yrotation
    JOINT LeftLeg
    {
      OFFSET 2.56703 -44.7417 -7.93097
      CHANNELS 3 Zrotation Xrotation Yrotation
      JOINT LeftFoot
      {
        OFFSET 3.16933 -46.5642 -3.96578
        CHANNELS 3 Zrotation Xrotation Yrotation
        JOINT LeftToeBase
        {
          OFFSET 0.346054 -6.02161 12.8035
          CHANNELS 3 Zrotation Xrotation Yrotation
          End Site
          {
            OFFSET 0.134235 -1.35082 5.13018
          }
        }
      }
    }
  }
  JOINT RightUpLeg
  {
    OFFSET -5.7928 -1.72406 10.6446
    CHANNELS 3 Zrotation Xrotation Yrotation
    JOINT RightLeg
    {
      OFFSET -2.57161 -44.7178 -7.85259
      CHANNELS 3 Zrotation Xrotation Yrotation
      JOINT RightFoot
      {
        OFFSET -3.10148 -46.5936 -4.03391
        CHANNELS 3 Zrotation Xrotation Yrotation
        JOINT RightToeBase
        {
          OFFSET -0.0828122 -6.13587 12.8035
          CHANNELS 3 Zrotation Xrotation Yrotation
          End Site
          {
            OFFSET -0.131328 -1.35082 5.13018
          }
        }
      }
    }
  }
}
MOTION
Frames: 15
Frame Time: 0.03333333333333333
0.0000 93.1000 0.0000 68.4445 -46.5859 -4.0579 -71.1351 0.0302 88.1713 73.9658 81.2743 13.3364 -5.8116 32.0542 2.3899 -133.2040 37.5534 151.1368 171.6536 80.8050 -145.2867 0.8446 4.3855 -12.1734 -113.3360 25.3086 -60.3740 15.5793 -5.0629 -104.9155 0.5867 0.5493 1.5696 -2.2872 7.0005 38.2896 -101.5137 -16.9680 73.4303 21.8775 -6.8169 74.2322 -1.3017 0.3656 -1.1460 -26.8080 -6.5249 80.2090 -5.0745 52.8118 -5.6710 2.9235 -8.0070 -1.6746 -1.8122 3.7325 -2.7069 -67.3774 17.2193 79.3559 4.8708 28.8191 4.3329 -5.7836 -25.4727 1.5236 3.1812 -3.6474 -28.0776 
0.0000 93.1000 0.0000 69.4887 -48.1078 -5.0898 -71.1471 0.0502 88.2428 55.7430 81.9367 28.3804 -4.3668 32.1289 1.4868 -132.2247 36.3936 148.9385 174.5970 80.2227 -148.8326 0.9229 5.1756 -10.1464 -112.1776 25.4303 -63.4459 16.0068 -5.5056 -105.1588 0.9463 0.4936 0.7669 -2.2565 7.2043 37.3653 -95.6128 -22.8435 66.0952 19.8759 -6.8508 73.4028 -1.1779 0.3945 -1.3543 -29.5193 -4.8881 81.2481 -6.4760 55.8003 -6.7035 3.6873 -11.1511 -2.1180 -2.4755 3.0607 2.2231 -67.6244 15.0898 74.7280 3.3658 37.1750 11.5321 -4.9828 -20.4585 1.5102 2.1178 -17.8908 -18.4929 
0.0000 93.1000 0.0000 72.4312 -47.8520 -3.1022 -71.1408 -0.0793 88.2755 58.6755 80.0182 22.3475 -3.7370 30.9944 1.3024 -130.3266 33.7121 148.9493 174.7820 78.2632 -146.5578 1.7431 4.6545 -10.6191 -108.5776 28.6846 -71.4440 16.1337 -5.8840 -106.3316 0.7430 -0.1928 1.3245 -2.2222 6.7586 38.4696 -92.0443 -29.6542 58.0459 13.8768 -5.9477 69.8850 -0.3094 -0.3387 -1.0158 -33.8543 -2.8910 82.6486 -5.7841 56.8088 -7.3431 5.5472 -14.0039 -2.2719 -2.0277 2.1018 0.7279 -61.1420 11.0271 72.1415 1.3247 52.2731 0.8568 -4.8237 -17.6439 1.3495 2.1569 -24.1983 -3.8284 
0.0000 93.1000 0.0000 78.1372 -43.6185 4.0520 -71.1308 -0.6706 88.3112 84.2470 76.5000 -4.7240 -5.8632 28.8918 1.9241 -123.9150 29.3659 147.6136 175.0815 75.4628 -146.1941 4.6124 1.2994 -13.7885 -101.0805 34.0769 -84.9335 15.4618 -4.7266 -105.0586 -0.5180 -3.0989 4.4560 -2.3387 6.1778 40.7398 -94.1829 -32.8940 48.0018 4.8258 -2.6133 64.3783 2.4073 -3.6873 0.5954 -38.4887 -1.0521 81.3057 -6.3815 55.4639 -10.1642 5.8550 -12.9960 0.2135 -1.6793 0.1775 1.5317 -51.4374 6.9729 72.0222 1.5347 59.8995 -9.7728 -6.0645 -15.7319 0.0360 2.9137 -23.6323 0.1038 
0.0000 93.1000 0.0000 82.9024 -39.8328 9.7965 -71.0528 -0.1678 88.2363 99.4708 71.7169 -22.9525 -3.9095 24.2081 4.4223 -118.3705 23.8616 145.8138 -168.9675 72.4964 -155.1236 1.1771 -4.5792 -16.4618 -92.4083 36.3475 -103.5878 16.5891 -4.1574 -99.8581 -1.7295 -0.5126 2.3131 -2.8716 5.7162 45.9118 -95.0329 -33.0164 37.4205 -11.6812 5.2798 61.8839 0.0785 -0.7522 -1.3310 -42.4833 -1.0387 78.5009 -6.1813 55.5811 -11.0253 8.2956 -12.6028 -2.6031 -0.4455 -0.2821 1.0934 -40.5888 5.2436 78.9833 2.3551 58.9517 -6.4520 -2.9042 -17.6758 0.8514 2.4956 -20.6713 -11.2111 
0.0000 93.1000 0.0000 87.6653 -39.1601 15.4035 -71.0221 -0.1507 88.1951 110.2599 67.2705 -36.2021 -1.9700 20.1665 6.0949 -117.6284 20.0804 147.4057 -162.0551 68.7268 -158.7243 0.2364 -10.8954 -19.0142 -89.7109 32.4023 -117.5824 16.9778 -1.0036 -90.7636 -3.1509 -0.3022 3.1091 -3.0635 5.8886 46.8648 -95.0130 -30.2058 33.1549 -17.5356 7.3340 63.9109 -0.0562 -0.6676 -1.9553 -46.5865 1.8842 77.0064 -5.8898 55.8273 -11.4287 7.5162 -12.8180 -2.6682 -0.9696 1.3803 1.5719 -26.9851 2.5703 85.7030 2.3243 53.6127 -3.9642 0.2603 -18.4070 0.9730 2.0061 -21.0341 -20.1104 
0.0000 93.1000 0.0000 93.7985 -42.6332 21.5427 -70.9984 -0.1516 88.1535 117.2499 62.8410 -45.0263 1.6263 18.2405 5.8023 -120.4539 17.0304 150.9412 -155.9366 64.7098 -162.0531 -0.1161 -14.8068 -17.5446 -89.7210 28.5786 -131.6081 14.7819 3.1180 -75.8064 -3.9293 -0.2304 3.8078 -3.0397 7.0647 44.2721 -91.6499 -28.5819 35.2307 -19.0567 8.1655 66.0055 0.1659 -0.7157 -2.2508 -50.8801 8.2403 79.6814 -5.8495 56.1109 -11.4150 6.0580 -13.0437 -2.7637 -1.2312 -0.9396 1.5962 -15.2190 0.3212 86.7506 1.1718 40.0994 0.5473 4.0949 -16.4763 0.6786 1.7122 -23.4410 -18.1630 
0.0000 93.1000 0.0000 103.9090 -46.8584 29.4350 -70.9780 -0.2754 88.0777 126.3341 57.6205 -52.4077 3.1091 17.3008 5.0320 -121.2830 15.8361 157.3853 -155.6149 61.1197 -161.1146 0.3579 -17.2821 -14.8824 -91.7541 23.7639 -141.8264 9.5111 5.7006 -56.5446 -3.3928 -0.8508 4.8610 -3.1282 8.1813 40.1899 -87.8093 -25.3960 41.4882 -18.4577 7.7741 67.5525 0.6170 -1.4830 -1.7008 -57.8864 14.8946 83.6580 -5.8509 53.6586 -12.5894 4.1833 -13.7325 -1.9646 -1.3938 -0.0142 0.7005 -5.9241 -1.2041 86.9106 1.5246 21.2720 8.8168 4.5573 -12.6155 0.0521 0.8726 -25.8447 -23.4832 
0.0000 93.1000 0.0000 107.7577 -47.5854 36.0893 -70.9768 -0.3071 87.9955 131.4588 52.1074 -55.5093 4.7602 14.8596 7.4819 -120.6266 15.3097 161.9399 -155.1722 59.0392 -159.2137 0.4225 -20.2047 -12.0649 -94.0348 23.5100 -147.8658 2.6011 2.9852 -38.7830 -2.4251 -1.0281 5.0990 -3.1801 9.2734 36.7097 -84.3027 -20.2020 50.2946 -20.0238 7.9544 66.7601 0.7642 -1.7835 -1.8601 -62.6442 21.1953 85.3050 -6.0034 51.4269 -15.4716 1.6972 -13.3403 -1.3836 -0.4079 -1.6597 0.8812 6.1753 -5.5699 90.1729 0.9316 13.8640 9.9103 2.2403 -8.8251 -0.0915 2.0020 -26.4169 -29.9191 
0.0000 93.1000 0.0000 107.5148 -43.9575 41.2376 -71.0073 -0.1574 87.9476 134.4245 47.1032 -55.3345 6.7161 11.8199 10.7955 -122.3905 14.8737 164.3141 -155.0079 58.6260 -159.3170 -0.2957 -21.3961 -10.4243 -102.6569 32.2266 -149.6378 0.0325 6.8968 -23.9984 -1.4103 -0.4816 3.7660 -3.1642 9.9333 34.2482 -84.4550 -13.7841 58.2689 -20.7391 8.8831 65.3557 0.7480 -1.2110 -2.9712 -63.7925 25.9170 82.6184 -6.0731 50.9441 -17.1463 -0.5660 -12.2128 -1.4959 1.0033 -3.8864 0.3292 19.7084 -14.0729 96.6552 -0.3348 12.0769 5.6589 2.2915 -3.7218 -0.2955 0.8743 -23.5719 -25.5153 
0.0000 93.1000 0.0000 106.5972 -41.6047 44.8023 -71.0501 -0.0635 87.9346 140.2782 43.1647 -54.2939 7.9991 10.5530 10.9917 -120.3733 15.0464 162.8675 -154.9846 58.8641 -157.2377 -0.7284 -23.0469 -11.7895 -105.2031 37.9325 -150.4997 -1.9850 9.9949 -15.5660 -0.3278 -0.2402 1.9101 -3.0334 10.5077 32.0270 -83.9551 -9.3831 64.1114 -18.0788 9.0447 60.1266 0.9031 -0.9628 -4.0046 -63.4522 31.2455 80.6586 -6.2638 51.0500 -18.9354 -3.9886 -9.9420 -0.9476 1.7706 -5.7525 0.5367 32.2933 -22.6658 104.4886 -2.4215 13.2118 9.2807 1.6388 1.4004 -0.6151 0.4894 -23.2406 -23.5500 
0.0000 93.1000 0.0000 107.3283 -40.4181 47.7449 -71.0819 0.0532 87.9064 145.3930 40.8292 -54.1886 7.3021 10.0765 10.0300 -118.2399 15.9005 162.7462 -156.0683 59.7556 -154.3864 -1.3099 -24.1142 -12.9421 -103.5940 37.9638 -152.6913 -1.9073 9.4619 -15.7756 0.0841 0.1547 0.2877 -3.1571 11.0745 32.1539 -78.7334 -4.7613 67.1083 -17.4377 10.5320 56.6643 1.1330 -0.4954 -5.2548 -62.6072 35.7927 80.3519 -5.9127 51.4814 -17.4403 -6.3216 -6.8173 -0.7544 2.8085 -6.0911 -5.1595 43.1205 -27.1645 112.9124 -4.2969 13.3919 16.8201 -1.3582 3.7288 -0.0593 0.7134 -27.9460 -35.1765 
0.0000 93.1000 0.0000 109.1986 -40.6478 49.5707 -71.0888 -0.0130 87.9045 149.2688 40.4740 -56.0822 6.0976 10.6066 9.1361 -115.6318 16.8200 162.6374 -153.1158 60.5893 -155.1770 -0.8956 -24.8294 -13.7058 -101.1867 34.4406 -153.7158 -0.1890 9.7845 -18.9389 -0.2667 -0.2930 0.4279 -3.2529 10.8496 33.6119 -75.1116 -2.3866 66.5220 -22.5170 14.8375 56.5902 2.4378 -0.9892 -6.2136 -63.6715 36.3424 80.5033 -4.6214 52.4424 -13.3924 -8.9154 -2.8102 0.3233 3.8317 -6.7130 -14.2557 49.8320 -31.0862 118.8977 -3.2836 11.8253 12.2984 -4.0493 2.4891 0.3883 0.1840 -25.2951 -37.9863 
0.0000 93.1000 0.0000 112.2313 -44.6710 51.3948 -71.0632 -0.1322 87.9216 151.4028 42.7738 -57.2187 4.3010 12.5883 8.5230 -113.5798 18.3302 164.6128 -156.6558 61.4241 -152.4540 -0.1367 -23.9136 -14.1889 -99.7240 31.9018 -149.5499 -0.0083 8.0518 -22.0687 -1.0040 -0.8146 1.6030 -3.1431 10.6859 32.8128 -76.4477 -4.1181 68.3250 -23.0354 16.1710 55.5732 2.7301 -1.6071 -5.7356 -65.6279 34.6677 79.5461 -4.7151 51.6210 -8.2876 -9.6872 1.7449 1.2725 4.5847 -7.9650 -15.3044 49.8798 -33.3499 118.9073 -3.7862 12.3095 12.4681 -3.9133 2.2167 0.3124 0.4782 -23.8623 -35.9688 
0.0000 93.1000 0.0000 111.9492 -53.7427 53.3658 -71.0433 -0.1651 87.9483 150.5498 47.8238 -50.6645 3.6284 14.4663 6.8613 -113.2776 19.8320 170.6255 -161.7322 61.9254 -147.8418 0.0924 -22.3943 -15.5174 -99.8233 26.7917 -138.9197 1.9280 7.0215 -27.5523 -1.1442 -0.8195 2.7834 -3.0828 10.1631 32.2681 -82.1765 -8.3288 71.0166 -21.4328 15.2538 55.5240 2.1032 -1.6564 -5.1680 -64.4085 33.9523 77.6180 -3.9006 50.2184 -3.1157 -6.8885 6.9193 1.1737 5.1658 -9.6839 -16.6637 40.9918 -33.7009 114.4383 -4.4585 13.2409 16.2684 -2.7667 1.6289 0.3545 0.1427 -24.8878 -36.6360 
